# xmcd
#
# Track frame offsets: 
#        150
#        8879
#        21224
#        36078
#        41772
#        52227
#        62318
#        73779
#        89923
#        100402
#        115725
#        128371
#        137935
#        147813
#        166028
#
# Disc length: 2286 seconds
#
# Revision: 1
# Processed by: cddbd v1.5.2PL0 Copyright (c) Steve Scherf et al.
# Submitted via: ExactAudioCopy v0.99pb5
#
DISCID=d008ec0f
DTITLE=Wiseman, Mac - Bluegrass 1971
DYEAR=2010
DGENRE=Country
TTITLE0=Wabash Cannonball
TTITLE1=I Wonder How the Old Folks Are At Home
TTITLE2=Me and Bobby McGee
TTITLE3=Liberty (w/ Chubby Wise, Tater Tate and Joe Greene)
TTITLE4=Four Walls Around Me
TTITLE5=I'll Still Write Your Name In The Sand
TTITLE6=Blue Birds Are Singing For Me (w/ Lester Flatt)
TTITLE7=Sweet Heart You Done Me Wrong (w/ Lester Flatt)
TTITLE8=Will You Be Loving Another Man (w/ Lester Flatt)
TTITLE9=I'll Be All Smiles Tonight
TTITLE10=All I Have To Offer You Is Me
TTITLE11=Are You Washed In the Blood (w/ The Shenandoah Cut-Ups)
TTITLE12=Jimmy Brown the News Boy
TTITLE13=Mac Wiseman on the History of Bluegrass (w/ Lester Flatt, Chu
TTITLE13=bby Wise and Carlton Haney)
TTITLE14=Prisoner's Song
EXTD=
EXTT0=
EXTT1=
EXTT2=
EXTT3=
EXTT4=
EXTT5=
EXTT6=
EXTT7=
EXTT8=
EXTT9=
EXTT10=
EXTT11=
EXTT12=
EXTT13=
EXTT14=
PLAYORDER=
